<mxfile host="app.diagrams.net" modified="2024-01-15T08:25:43.669Z" agent="Mozilla/5.0 (Macintosh; Intel Mac OS X 10_15_7) AppleWebKit/537.36 (KHTML, like Gecko) Chrome/120.0.0.0 Safari/537.36 Edg/120.0.0.0" etag="AYKkl0z1uaFFpD1e7v6D" version="22.1.18" type="github">
  <diagram name="ngx_adp" id="dC70pTfbhtXe6jeN7_Fv">
    <mxGraphModel dx="1320" dy="872" grid="1" gridSize="10" guides="1" tooltips="1" connect="1" arrows="1" fold="1" page="1" pageScale="1" pageWidth="1169" pageHeight="827" math="0" shadow="0">
      <root>
        <mxCell id="0" />
        <mxCell id="1" parent="0" />
      </root>
    </mxGraphModel>
  </diagram>
</mxfile>
